<?xml version="1.0" encoding="UTF-8"?>
<svg xmlns="http://www.w3.org/2000/svg" xmlns:xlink="http://www.w3.org/1999/xlink" viewBox="0 0 24 24" width="24px" height="24px">
<g id="surface888041">
<rect x="0" y="0" width="24" height="24" style="fill:rgb(94.509804%,76.862746%,5.882353%);fill-opacity:1;stroke:none;"/>
<path style=" stroke:none;fill-rule:nonzero;fill:rgb(100%,100%,100%);fill-opacity:1;" d="M 12 2 C 6.476562 2 2 6.476562 2 12 C 2 17.523438 6.476562 22 12 22 C 17.523438 22 22 17.523438 22 12 C 22 6.476562 17.523438 2 12 2 Z M 10 16 C 7.746094 16 5.925781 14.136719 6.003906 11.863281 C 6.070312 9.792969 7.785156 8.074219 9.859375 8.003906 C 10.597656 7.976562 11.285156 8.15625 11.886719 8.484375 C 12.332031 8.726562 12.402344 9.335938 12.035156 9.683594 C 11.800781 9.90625 11.449219 9.949219 11.160156 9.796875 C 10.660156 9.527344 10.0625 9.417969 9.425781 9.566406 C 8.476562 9.785156 7.722656 10.566406 7.542969 11.523438 C 7.25 13.113281 8.464844 14.5 10 14.5 C 11.210938 14.5 12.21875 13.640625 12.449219 12.5 L 10.75 12.5 C 10.335938 12.5 10 12.164062 10 11.75 C 10 11.335938 10.335938 11 10.75 11 L 12.96875 11 C 13.523438 11 13.996094 11.4375 14 11.988281 C 14 11.992188 14 11.996094 14 12 C 14 14.210938 12.210938 16 10 16 Z M 18 12 L 18 13 C 18 13.277344 17.777344 13.5 17.5 13.5 C 17.222656 13.5 17 13.277344 17 13 L 17 12 L 16 12 C 15.722656 12 15.5 11.777344 15.5 11.5 C 15.5 11.222656 15.722656 11 16 11 L 17 11 L 17 10 C 17 9.722656 17.222656 9.5 17.5 9.5 C 17.777344 9.5 18 9.722656 18 10 L 18 11 L 19 11 C 19.277344 11 19.5 11.222656 19.5 11.5 C 19.5 11.777344 19.277344 12 19 12 Z M 18 12 "/>
</g>
</svg>
