<?xml version="1.0" encoding="UTF-8"?>
<svg xmlns="http://www.w3.org/2000/svg" xmlns:xlink="http://www.w3.org/1999/xlink" viewBox="0 0 24 24" width="24px" height="24px">
<g id="surface865441">
<rect x="0" y="0" width="24" height="24" style="fill:rgb(94.509804%,77.254903%,23.529412%);fill-opacity:1;stroke:none;"/>
<path style=" stroke:none;fill-rule:nonzero;fill:rgb(100%,100%,100%);fill-opacity:1;" d="M 15.289062 14.675781 C 15.140625 14.628906 14.214844 14.210938 14.792969 12.445312 L 14.789062 12.445312 C 16.296875 10.894531 17.453125 8.386719 17.453125 5.921875 C 17.453125 2.132812 14.929688 0.144531 12 0.144531 C 9.070312 0.144531 6.5625 2.132812 6.5625 5.921875 C 6.5625 8.398438 7.710938 10.910156 9.230469 12.464844 C 9.820312 14.019531 8.761719 14.597656 8.542969 14.675781 C 5.472656 15.785156 1.875 17.808594 1.875 19.804688 C 1.875 20.34375 1.875 20.019531 1.875 20.554688 C 1.875 23.273438 7.148438 23.894531 12.027344 23.894531 C 16.917969 23.894531 22.125 23.273438 22.125 20.554688 C 22.125 20.019531 22.125 20.34375 22.125 19.804688 C 22.125 17.75 18.507812 15.742188 15.289062 14.675781 Z M 15.289062 14.675781 "/>
</g>
</svg>
